<svg width="169" height="40" viewBox="0 0 169 40" fill="none" xmlns="http://www.w3.org/2000/svg">
<g clip-path="url(#clip0_192_3610)">
<path fill-rule="evenodd" clip-rule="evenodd" d="M113.187 19.2842C114.848 19.2842 115.489 20.2996 115.578 21.1841C115.584 21.2403 115.54 21.2894 115.483 21.2894H110.919C110.861 21.2894 110.816 21.2381 110.824 21.1805C110.948 20.3167 111.714 19.2842 113.187 19.2842ZM115.688 24.9058C115.627 24.9058 115.568 24.935 115.533 24.985C115.121 25.5635 114.452 25.9208 113.451 25.9208C112.073 25.9208 110.877 25.016 110.748 23.7347C110.742 23.6782 110.786 23.6291 110.844 23.6291H114.999H119.042C119.066 23.5574 119.114 23.0084 119.114 22.5068C119.114 18.6875 116.834 16.4195 113.139 16.4195C110.044 16.4195 107.189 18.8544 107.189 22.674C107.189 26.6608 110.116 29.0003 113.403 29.0003C116.375 29.0003 118.257 27.3398 118.867 25.3335C118.871 25.3205 118.891 25.246 118.914 25.1366C118.939 25.0176 118.848 24.9058 118.726 24.9058H115.688ZM122.938 22.613L119.05 17.0778C118.961 16.9514 119.052 16.7774 119.208 16.7774H123.03C123.095 16.7774 123.156 16.8101 123.191 16.8641L125.188 19.9007C125.227 19.9587 125.312 19.9583 125.35 19.8998L127.301 16.8656C127.336 16.8107 127.397 16.7774 127.462 16.7774H131.065C131.221 16.7774 131.312 16.9525 131.222 17.0789L127.387 22.4688C127.341 22.5345 127.34 22.6223 127.386 22.6884C128.642 24.4736 130.077 26.5364 131.365 28.3409C131.455 28.4675 131.364 28.6421 131.208 28.6421H127.413C127.348 28.6421 127.288 28.6097 127.252 28.556L125.181 25.4201C125.143 25.363 125.06 25.3625 125.021 25.4192C124.401 26.3406 123.59 27.6233 122.975 28.5562C122.94 28.61 122.879 28.6421 122.815 28.6421H119.277C119.122 28.6421 119.031 28.4693 119.119 28.3429L122.939 22.8311C122.984 22.7654 122.984 22.6785 122.938 22.613ZM102.342 28.4511V11.5496C102.342 11.444 102.428 11.3585 102.534 11.3585H105.797C105.903 11.3585 105.989 11.444 105.989 11.5496V28.4511C105.989 28.5566 105.903 28.6421 105.797 28.6421H102.534C102.428 28.6421 102.342 28.5566 102.342 28.4511ZM96.9672 28.4511V11.5496C96.9672 11.444 97.0531 11.3585 97.1591 11.3585H100.422C100.528 11.3585 100.614 11.444 100.614 11.5496V28.4511C100.614 28.5566 100.528 28.6421 100.422 28.6421H97.1591C97.0531 28.6421 96.9672 28.5566 96.9672 28.4511ZM88.8966 25.8492C90.3602 25.8492 91.6081 24.7033 91.6081 22.6979C91.6081 20.645 90.3845 19.5706 88.8966 19.5706C87.3371 19.5706 86.1613 20.645 86.1613 22.6979C86.1613 24.6554 87.3853 25.8492 88.8966 25.8492ZM91.6322 27.1144C91.1043 28.2603 89.9046 28.9763 88.4169 28.9763C84.9137 28.9763 82.4904 26.3267 82.4904 22.674C82.4904 19.1408 84.7699 16.4195 88.2968 16.4195C90.4325 16.4195 91.3682 17.5892 91.6081 18.1382V16.9687C91.6081 16.8632 91.6941 16.7774 91.8 16.7774H94.9433C95.0492 16.7774 95.1352 16.8632 95.1352 16.9687V28.4511C95.1352 28.5566 95.0492 28.6421 94.9433 28.6421H91.8027C91.6959 28.6421 91.6094 28.5551 91.611 28.4486C91.6173 28.0171 91.6322 27.0206 91.6322 27.1144ZM74.7079 16.9088L76.8938 23.5225C76.923 23.6118 77.0515 23.6093 77.0771 23.5184L78.944 16.9169C78.9672 16.8344 79.0428 16.7774 79.1287 16.7774H82.2981C82.4274 16.7774 82.5199 16.9023 82.4817 17.0252L78.9053 28.5076C78.8805 28.5877 78.8063 28.6421 78.7221 28.6421H75.3782C75.2958 28.6421 75.2227 28.5897 75.1964 28.5121L72.741 21.2507C72.7115 21.1638 72.5875 21.164 72.5587 21.2511L70.149 28.5112C70.1231 28.5893 70.0497 28.6421 69.9669 28.6421H66.5514C66.4675 28.6421 66.3935 28.5881 66.3681 28.5083L62.7456 17.0256C62.7069 16.9028 62.7991 16.7774 62.9287 16.7774H66.3131C66.3991 16.7774 66.4745 16.8344 66.4979 16.9167L68.3651 23.4975C68.391 23.5877 68.5186 23.5909 68.5485 23.5016L70.7576 16.9082C70.7837 16.8301 70.8573 16.7774 70.9398 16.7774H74.5254C74.6082 16.7774 74.682 16.8305 74.7079 16.9088ZM61.7556 20.1243C61.7556 20.2427 61.6482 20.3331 61.5312 20.3124C61.2061 20.255 60.8969 20.2391 60.6038 20.2391C59.1401 20.2391 57.8205 21.0986 57.8205 23.4617V28.4511C57.8205 28.5566 57.7346 28.6421 57.6286 28.6421H54.3654C54.2592 28.6421 54.1733 28.5566 54.1733 28.4511V16.9687C54.1733 16.8632 54.2592 16.7774 54.3654 16.7774H57.5084C57.6146 16.7774 57.7004 16.8632 57.7004 16.9687V18.377C58.3243 17.0402 59.8361 16.6582 60.7957 16.6582C61.0871 16.6582 61.3785 16.6895 61.6059 16.7394C61.6937 16.7585 61.7556 16.8364 61.7556 16.9259V20.1243ZM48.7269 28.4511V16.9687C48.7269 16.8632 48.8129 16.7774 48.9188 16.7774H52.1822C52.2882 16.7774 52.3742 16.8632 52.3742 16.9687V28.4511C52.3742 28.5566 52.2882 28.6421 52.1822 28.6421H48.9188C48.8129 28.6421 48.7269 28.5566 48.7269 28.4511ZM50.5265 11.0244C51.7262 11.0244 52.686 11.9793 52.686 13.1489C52.686 14.3186 51.7262 15.2735 50.5265 15.2735C49.3747 15.2735 48.4148 14.3186 48.4148 13.1489C48.4148 11.9793 49.3747 11.0244 50.5265 11.0244ZM37.1057 21.7668H40.9619C41.0279 21.7668 41.0742 21.702 41.0526 21.6401L39.1469 16.1751C39.1172 16.0898 38.9963 16.0894 38.9657 16.1744L37.0152 21.6395C36.9932 21.7016 37.0395 21.7668 37.1057 21.7668ZM42.161 25.2046H35.8578C35.7764 25.2046 35.7039 25.2554 35.6769 25.3317L34.5436 28.5148C34.5166 28.5911 34.4441 28.6421 34.3627 28.6421H30.7928C30.6585 28.6421 30.5658 28.5087 30.6131 28.3838L36.875 11.8403C36.9032 11.7658 36.9747 11.7167 37.0546 11.7167H41.1795C41.2596 11.7167 41.3314 11.7662 41.3593 11.8409L47.5508 28.3845C47.5976 28.5094 47.5047 28.6421 47.3711 28.6421H43.6561C43.5747 28.6421 43.5022 28.5911 43.475 28.5148L42.3419 25.3317C42.3146 25.2554 42.2422 25.2046 42.161 25.2046Z" fill="#080808"/>
<path fill-rule="evenodd" clip-rule="evenodd" d="M7.20351 11.0582C8.55846 10.822 9.89675 11.3136 10.7837 12.3749L16.849 19.6348L22.4279 17.3587C23.6679 16.8531 25.0325 17.124 25.9903 18.0661C26.9477 19.0081 27.2519 20.3786 26.7839 21.6431L25.0219 26.425C24.5591 27.6812 23.5052 28.6521 22.202 28.9059C21.9601 28.9529 21.718 28.9759 21.4791 28.9759C20.3934 28.9759 19.3683 28.5002 18.6486 27.6385L8.08258 14.9917C7.96761 14.8542 7.74846 14.8924 7.68591 15.061L4.24656 24.3503C4.17546 24.5422 4.36446 24.7281 4.55256 24.6514L8.77153 22.9301C9.76648 22.5244 10.9041 23.0453 11.2461 24.0902C11.5582 25.0444 11.0337 26.0756 10.1114 26.4518L4.59981 28.7005C3.57944 29.1167 2.40696 29.0427 1.48851 28.4307C0.177888 27.5577 -0.321387 25.9154 0.208488 24.4846L4.27063 13.5141C4.75213 12.2134 5.84856 11.2954 7.20351 11.0582ZM22.7726 21.7122C22.8432 21.5203 22.6542 21.3346 22.4661 21.4114L19.3839 22.6689L21.2329 24.882C21.3481 25.0197 21.5679 24.9812 21.63 24.812L22.7726 21.7122Z" fill="url(#paint0_linear_192_3610)"/>
</g>
<path d="M148.976 28.5H151.376L147.056 17.156H144.496L140.144 28.5H142.48L143.424 25.908H148.032L148.976 28.5ZM145.728 19.604L147.296 23.892H144.16L145.728 19.604ZM156.083 22.324V19.076H157.827C158.931 19.076 159.603 19.7 159.603 20.708C159.603 21.684 158.931 22.324 157.827 22.324H156.083ZM158.099 24.228C160.339 24.228 161.827 22.756 161.827 20.692C161.827 18.644 160.339 17.156 158.099 17.156H153.859V28.5H156.067V24.228H158.099ZM166.787 28.5V17.156H164.547V28.5H166.787Z" fill="#2F3237"/>
<defs>
<linearGradient id="paint0_linear_192_3610" x1="0" y1="19.9879" x2="27.0001" y2="19.9879" gradientUnits="userSpaceOnUse">
<stop stop-color="#FF4F42"/>
<stop offset="1" stop-color="#FF8E3C"/>
</linearGradient>
<clipPath id="clip0_192_3610">
<rect width="132" height="18" fill="white" transform="translate(0 11)"/>
</clipPath>
</defs>
</svg>
